<svg width="28" height="29" viewBox="0 0 28 29" fill="none" xmlns="http://www.w3.org/2000/svg">
<g clip-path="url(#clip0_1611_7134)">
<mask id="mask0_1611_7134" style="mask-type:luminance" maskUnits="userSpaceOnUse" x="0" y="0" width="28" height="28">
<path d="M28 14C28 6.26801 21.732 0 14 0C6.26801 0 0 6.26801 0 14C0 21.732 6.26801 28 14 28C21.732 28 28 21.732 28 14Z" fill="white"/>
</mask>
<g mask="url(#mask0_1611_7134)">
<path d="M18.6667 9.91634C18.6667 7.66118 16.8385 5.83301 14.5833 5.83301C12.3282 5.83301 10.5 7.66118 10.5 9.91634C10.5 12.1715 12.3282 13.9997 14.5833 13.9997C16.8385 13.9997 18.6667 12.1715 18.6667 9.91634Z" fill="#AAA6A6"/>
<path d="M24.5 26.833C24.5 21.034 19.799 16.333 14 16.333C8.20101 16.333 3.5 21.034 3.5 26.833C3.5 32.632 8.20101 37.333 14 37.333C19.799 37.333 24.5 32.632 24.5 26.833Z" fill="#AAA6A6"/>
</g>
<path d="M26.9508 14.8743C26.9508 7.72223 21.1529 1.92432 14.0008 1.92432C6.84869 1.92432 1.05078 7.72223 1.05078 14.8743C1.05078 22.0264 6.84869 27.8243 14.0008 27.8243C21.1529 27.8243 26.9508 22.0264 26.9508 14.8743Z" stroke="#AAA6A6" stroke-width="1.8"/>
</g>
<defs>
<clipPath id="clip0_1611_7134">
<rect width="28" height="28.875" fill="white"/>
</clipPath>
</defs>
</svg>
