<svg width="28" height="28" viewBox="0 0 28 28" fill="none" xmlns="http://www.w3.org/2000/svg">
<g clip-path="url(#clip0_1611_7142)">
<path d="M11.6673 18.6667V17.5H3.51232L3.50065 22.1667C3.50065 23.4617 4.53898 24.5 5.83398 24.5H22.1673C23.4623 24.5 24.5007 23.4617 24.5007 22.1667V17.5H16.334V18.6667H11.6673ZM23.334 8.16667H18.6557V5.83333L16.3223 3.5H11.6557L9.32232 5.83333V8.16667H4.66732C3.38398 8.16667 2.33398 9.21667 2.33398 10.5V14C2.33398 15.295 3.37232 16.3333 4.66732 16.3333H11.6673V14H16.334V16.3333H23.334C24.6173 16.3333 25.6673 15.2833 25.6673 14V10.5C25.6673 9.21667 24.6173 8.16667 23.334 8.16667ZM16.334 8.16667H11.6673V5.83333H16.334V8.16667Z" fill="#AAA6A6"/>
</g>
<defs>
<clipPath id="clip0_1611_7142">
<rect width="28" height="28" fill="white"/>
</clipPath>
</defs>
</svg>
