<svg width="24" height="24" viewBox="0 0 24 24" fill="none" xmlns="http://www.w3.org/2000/svg">
<path d="M12.0004 2.40039C6.69879 2.40039 2.40039 6.69879 2.40039 12.0004C2.40039 17.302 6.69879 21.6004 12.0004 21.6004C17.302 21.6004 21.6004 17.302 21.6004 12.0004C21.6004 6.69879 17.302 2.40039 12.0004 2.40039ZM13.1316 12.0004C13.1316 12.0004 15.6428 14.5116 15.766 14.6348C16.0788 14.9476 16.0788 15.454 15.766 15.766C15.4532 16.0788 14.9468 16.0788 14.6348 15.766C14.5116 15.6436 12.0004 13.1316 12.0004 13.1316C12.0004 13.1316 9.48919 15.6428 9.36599 15.766C9.05319 16.0788 8.54679 16.0788 8.23479 15.766C7.92199 15.4532 7.92199 14.9468 8.23479 14.6348C8.35719 14.5116 10.8692 12.0004 10.8692 12.0004C10.8692 12.0004 8.35799 9.48919 8.23479 9.36599C7.92199 9.05319 7.92199 8.54679 8.23479 8.23479C8.54759 7.92199 9.05399 7.92199 9.36599 8.23479C9.48919 8.35719 12.0004 10.8692 12.0004 10.8692C12.0004 10.8692 14.5116 8.35799 14.6348 8.23479C14.9476 7.92199 15.454 7.92199 15.766 8.23479C16.0788 8.54759 16.0788 9.05399 15.766 9.36599C15.6436 9.48919 13.1316 12.0004 13.1316 12.0004Z" fill="#C40606"/>
</svg>
