<svg width="28" height="28" viewBox="0 0 28 28" fill="none" xmlns="http://www.w3.org/2000/svg">
<path d="M19.8332 24.5V22.1667C19.8332 20.929 19.3415 19.742 18.4663 18.8668C17.5912 17.9917 16.4042 17.5 15.1665 17.5H5.83317C4.59549 17.5 3.40851 17.9917 2.53334 18.8668C1.65817 19.742 1.1665 20.929 1.1665 22.1667V24.5" stroke="#212429" stroke-width="2" stroke-linecap="round" stroke-linejoin="round"/>
<path d="M10.5002 12.8333C13.0775 12.8333 15.1668 10.744 15.1668 8.16667C15.1668 5.58934 13.0775 3.5 10.5002 3.5C7.92283 3.5 5.8335 5.58934 5.8335 8.16667C5.8335 10.744 7.92283 12.8333 10.5002 12.8333Z" stroke="#212429" stroke-width="2" stroke-linecap="round" stroke-linejoin="round"/>
<path d="M26.8335 24.4997V22.1664C26.8327 21.1324 26.4886 20.1279 25.8551 19.3107C25.2216 18.4935 24.3346 17.9099 23.3335 17.6514" stroke="#212429" stroke-width="2" stroke-linecap="round" stroke-linejoin="round"/>
<path d="M18.6665 3.65137C19.6703 3.90839 20.56 4.49219 21.1954 5.31073C21.8308 6.12927 22.1757 7.136 22.1757 8.1722C22.1757 9.2084 21.8308 10.2151 21.1954 11.0337C20.56 11.8522 19.6703 12.436 18.6665 12.693" stroke="#212429" stroke-width="2" stroke-linecap="round" stroke-linejoin="round"/>
</svg>
