<svg width="32" height="32" viewBox="0 0 32 32" fill="none" xmlns="http://www.w3.org/2000/svg">
<path d="M23.6886 2.66699H8.23168C7.46303 2.66699 6.72587 2.97234 6.18235 3.51585C5.63884 4.05936 5.3335 4.79653 5.3335 5.56517V27.7971C5.33333 28.1172 5.41269 28.4324 5.56445 28.7142C5.71621 28.996 5.93562 29.2357 6.20296 29.4118C6.4703 29.5879 6.77719 29.6947 7.09605 29.7228C7.41492 29.7509 7.73577 29.6993 8.02977 29.5727L11.3656 28.1362L15.1149 29.9312C15.3822 30.0578 15.6748 30.1218 15.9706 30.1185C16.2664 30.1151 16.5575 30.0445 16.8219 29.9118L20.7905 27.9015L23.7853 29.4162C24.0797 29.5646 24.4072 29.6352 24.7365 29.6212C25.0659 29.6072 25.3863 29.5092 25.6671 29.3365C25.9479 29.1637 26.1798 28.922 26.3408 28.6343C26.5018 28.3466 26.5865 28.0225 26.5868 27.6928V5.56517C26.5868 4.79653 26.2815 4.05936 25.738 3.51585C25.1945 2.97234 24.4573 2.66699 23.6886 2.66699ZM24.6547 27.6928L21.6599 26.178C21.3891 26.0413 21.09 25.9701 20.7866 25.9701C20.4832 25.9701 20.1841 26.0413 19.9133 26.178L15.9437 28.1884L12.1964 26.3944C11.9477 26.2751 11.6763 26.2105 11.4005 26.2048C11.1248 26.1991 10.851 26.2526 10.5976 26.3616L7.26562 27.7971V5.56517C7.26562 5.30896 7.3674 5.06324 7.54857 4.88207C7.72974 4.70089 7.97546 4.59911 8.23168 4.59911H23.6886C23.9449 4.59911 24.1906 4.70089 24.3718 4.88207C24.5529 5.06324 24.6547 5.30896 24.6547 5.56517V27.6947V27.6928Z" fill="black"/>
<path d="M20.7907 7.49707H11.1301C10.8739 7.49707 10.6282 7.59885 10.447 7.78002C10.2658 7.96119 10.1641 8.20692 10.1641 8.46313C10.1641 8.71935 10.2658 8.96507 10.447 9.14624C10.6282 9.32741 10.8739 9.42919 11.1301 9.42919H20.7907C21.0469 9.42919 21.2927 9.32741 21.4738 9.14624C21.655 8.96507 21.7568 8.71935 21.7568 8.46313C21.7568 8.20692 21.655 7.96119 21.4738 7.78002C21.2927 7.59885 21.0469 7.49707 20.7907 7.49707ZM20.7907 12.3274H11.1301C10.8739 12.3274 10.6282 12.4292 10.447 12.6103C10.2658 12.7915 10.1641 13.0372 10.1641 13.2934C10.1641 13.5496 10.2658 13.7954 10.447 13.9765C10.6282 14.1577 10.8739 14.2595 11.1301 14.2595H20.7907C21.0469 14.2595 21.2927 14.1577 21.4738 13.9765C21.655 13.7954 21.7568 13.5496 21.7568 13.2934C21.7568 13.0372 21.655 12.7915 21.4738 12.6103C21.2927 12.4292 21.0469 12.3274 20.7907 12.3274ZM16.5642 17.1577H11.1301C10.8739 17.1577 10.6282 17.2595 10.447 17.4406C10.2658 17.6218 10.1641 17.8675 10.1641 18.1237C10.1641 18.38 10.2658 18.6257 10.447 18.8068C10.6282 18.988 10.8739 19.0898 11.1301 19.0898H16.5642C16.8204 19.0898 17.0662 18.988 17.2473 18.8068C17.4285 18.6257 17.5303 18.38 17.5303 18.1237C17.5303 17.8675 17.4285 17.6218 17.2473 17.4406C17.0662 17.2595 16.8204 17.1577 16.5642 17.1577Z" fill="black"/>
</svg>
