<svg width="43" height="38" viewBox="0 0 43 38" fill="none" xmlns="http://www.w3.org/2000/svg">
<g clip-path="url(#clip0_3448_1028)">
<path d="M27.9202 10.9961V26.4266H11.8117C11.8117 26.4266 11.8483 17.2911 11.8117 15.4676C11.7659 13.5617 10.7579 11.3168 10.6297 11.0236C10.6205 11.0053 10.6113 10.9961 10.6113 10.9961H27.9202Z" fill="#15314F"/>
<path opacity="0.53" d="M11.8109 15.4673C11.7651 13.5614 10.7572 11.3164 10.6289 11.0232H10.6747C16.4199 11.014 22.1743 11.0049 27.9195 11.0049V26.4262H11.8109C11.8109 26.4262 11.8476 17.2907 11.8109 15.4673Z" fill="#15314F"/>
<path d="M29.8175 11.0053V27.9935H9.66801C9.66801 27.9935 9.71383 16.5672 9.66801 14.2856C9.64052 13.1952 9.36563 12.0223 9.06325 11.0327C6.71752 11.0327 4.37179 11.0419 2.02606 11.0419C0.94483 11.4084 -0.301338 13.406 -0.310501 16.5947C-0.319664 19.8476 1.05479 22.0375 2.07188 22.2299H4.78413V38.0544H35.2511V10.9961C33.4368 10.9961 31.6226 10.9961 29.8175 11.0053ZM2.46589 20.7822C1.63206 20.7822 0.963156 18.8946 0.963156 16.558C0.963156 14.2215 1.63206 12.3339 2.46589 12.3339C3.29972 12.3339 3.96862 14.2215 3.96862 16.558C3.96862 18.8946 3.29972 20.7822 2.46589 20.7822Z" fill="#008951"/>
<path d="M27.9202 10.9961V26.4266H11.8117C11.8117 26.4266 11.8483 17.2911 11.8117 15.4676C11.7659 13.5617 10.7579 11.3168 10.6297 11.0236C10.6205 11.0053 10.6113 10.9961 10.6113 10.9961H27.9202Z" fill="#008951"/>
<path d="M17.0721 5.72713C18.6155 5.72713 19.8668 4.47589 19.8668 2.93241C19.8668 1.38893 18.6155 0.137695 17.0721 0.137695C15.5286 0.137695 14.2773 1.38893 14.2773 2.93241C14.2773 4.47589 15.5286 5.72713 17.0721 5.72713Z" fill="#37CFF7"/>
<path d="M37.1221 6.77153C37.2321 6.40501 37.287 6.011 37.287 5.60783C37.287 3.28043 35.3995 1.40201 33.0812 1.40201C32.1466 1.40201 31.2761 1.71355 30.5797 2.22668C29.6909 1.59443 28.6097 1.21875 27.4368 1.21875C24.4497 1.21875 22.0215 3.64695 22.0215 6.63409C22.0215 9.62123 24.4497 12.0494 27.4368 12.0494C28.6188 12.0494 29.7092 11.6737 30.5981 11.0323C30.9737 12.9657 32.6781 14.4318 34.7306 14.4318C37.058 14.4318 38.9364 12.5442 38.9364 10.226C38.9272 8.79656 38.2125 7.53206 37.1221 6.77153Z" fill="#37CFF7"/>
<path d="M22.9559 14.8902C22.3145 14.8902 21.7098 15.046 21.1875 15.33C21.0683 15.1468 20.9309 14.9727 20.7751 14.8169C21.4257 14.2396 21.8472 13.3966 21.8472 12.4529C21.8472 10.7119 20.4361 9.30078 18.6951 9.30078C16.9542 9.30078 15.5339 10.721 15.5339 12.4529C15.5339 13.2775 15.8546 14.0289 16.3677 14.5878C15.6347 15.1926 15.1582 16.0997 15.1582 17.126C15.1582 18.9403 16.6243 20.4063 18.4386 20.4063C18.8051 20.4063 19.1533 20.3422 19.4831 20.2322C20.0787 21.5609 21.4074 22.4772 22.9559 22.4772C25.0542 22.4772 26.7586 20.7729 26.7586 18.6745C26.7586 16.5762 25.0542 14.8902 22.9559 14.8902Z" fill="#37CFF7"/>
<path d="M10.5121 7.50458C11.7721 7.50458 12.7936 6.48308 12.7936 5.22299C12.7936 3.96291 11.7721 2.94141 10.5121 2.94141C9.25197 2.94141 8.23047 3.96291 8.23047 5.22299C8.23047 6.48308 9.25197 7.50458 10.5121 7.50458Z" fill="#37CFF7"/>
<path d="M40.6212 22.1834L37.0476 25.7569C35.3341 27.4704 32.5394 27.4704 30.8259 25.7569L22.3593 17.2903C20.6458 15.5768 20.6458 12.7821 22.3593 11.0686L25.9329 7.49507C27.6464 5.78159 30.4411 5.78159 32.1546 7.49507L40.6212 15.9617C42.3347 17.6752 42.3347 20.4699 40.6212 22.1834Z" fill="white"/>
<path d="M33.9416 27.7639C32.5671 27.7639 31.2751 27.2325 30.313 26.2703L21.8556 17.8037C19.858 15.8062 19.858 12.5442 21.8556 10.5466L25.4291 6.97306C26.3913 6.01095 27.6832 5.47949 29.0577 5.47949C30.4321 5.47949 31.7241 6.01095 32.6862 6.97306L41.1529 15.4397C42.115 16.4018 42.6464 17.6938 42.6464 19.0682C42.6464 20.4427 42.115 21.7347 41.1529 22.6968L37.5793 26.2703C36.608 27.2325 35.316 27.7639 33.9416 27.7639ZM29.0485 6.94557C28.0681 6.94557 27.1426 7.32126 26.4554 8.01764L22.8818 11.5912C21.4524 13.0206 21.4524 15.348 22.8818 16.7775L31.3484 25.2441C32.0357 25.9313 32.9611 26.3162 33.9416 26.3162C34.922 26.3162 35.8475 25.9405 36.5347 25.2441L40.1083 21.6705C40.7955 20.9833 41.1804 20.0578 41.1804 19.0774C41.1804 18.0969 40.8047 17.1715 40.1083 16.4843L31.6417 8.01764C30.9544 7.33042 30.029 6.94557 29.0485 6.94557Z" fill="#008951"/>
<path d="M27.1969 16.301C27.9054 16.301 28.4797 15.7267 28.4797 15.0182C28.4797 14.3097 27.9054 13.7354 27.1969 13.7354C26.4884 13.7354 25.9141 14.3097 25.9141 15.0182C25.9141 15.7267 26.4884 16.301 27.1969 16.301Z" fill="#15314F"/>
<path d="M36.4234 19.737C37.1319 19.737 37.7063 19.1627 37.7063 18.4542C37.7063 17.7457 37.1319 17.1714 36.4234 17.1714C35.715 17.1714 35.1406 17.7457 35.1406 18.4542C35.1406 19.1627 35.715 19.737 36.4234 19.737Z" fill="#15314F"/>
<path d="M31.2001 15.4671C31.7011 15.4671 32.1072 15.061 32.1072 14.56C32.1072 14.059 31.7011 13.6528 31.2001 13.6528C30.6991 13.6528 30.293 14.059 30.293 14.56C30.293 15.061 30.6991 15.4671 31.2001 15.4671Z" fill="#15314F"/>
<path d="M30.9989 20.2689C31.4999 20.2689 31.9061 19.8627 31.9061 19.3617C31.9061 18.8607 31.4999 18.4546 30.9989 18.4546C30.4979 18.4546 30.0918 18.8607 30.0918 19.3617C30.0918 19.8627 30.4979 20.2689 30.9989 20.2689Z" fill="#15314F"/>
</g>
<defs>
<clipPath id="clip0_3448_1028">
<rect width="42.5238" height="38" fill="white"/>
</clipPath>
</defs>
</svg>
