<svg width="45" height="46" viewBox="0 0 45 46" fill="none" xmlns="http://www.w3.org/2000/svg">
<g clip-path="url(#clip0_3112_3396)">
<path d="M44.1976 3.58438C43.4859 1.88325 42.4705 1.26702 41.1599 1.74438C40.8735 1.84853 40.5871 1.90929 40.292 1.91797L38.1569 2.00476C37.8271 2.02212 37.5406 2.23042 37.4278 2.53419C36.0738 5.99721 34.8761 9.49495 33.8259 13.0274C33.7478 13.3138 33.6089 13.5134 33.4267 13.6349C33.2184 13.7738 32.9754 13.8693 32.7063 13.9214" stroke="#F0F0F1" stroke-width="2"/>
<path d="M32.7075 13.9214L31.718 13.4528" stroke="#89C7E1" stroke-width="2"/>
<path d="M31.7177 13.4528C32.5596 8.23658 30.494 4.39168 25.5208 1.91809" stroke="#A3D0E9" stroke-width="2"/>
<path d="M25.5206 1.91809C24.7742 1.16299 23.5678 0.867897 21.8927 1.01544C18.0825 1.35394 14.524 5.22488 13.0051 8.42752" stroke="#A4D7F3" stroke-width="2"/>
<path d="M13.005 8.42752C8.93445 7.70714 4.87257 8.02827 0.802002 9.37356" stroke="#9DA6AA" stroke-width="2"/>
<path d="M25.5206 1.91809C22.7866 5.60677 21.8579 8.63583 22.7345 13.4441" stroke="#4DADE0" stroke-width="2"/>
<path d="M22.7345 13.4441H12.927" stroke="#33A3D7" stroke-width="2"/>
<path d="M12.9263 13.4442L12.7961 9.45178" stroke="#A4D7F3" stroke-width="2"/>
<path d="M12.7961 9.45152C13.0478 9.13039 13.1173 8.78322 13.0044 8.42737" stroke="#4782A0" stroke-width="2"/>
<path d="M44.199 4.87756L33.4368 32.4689" stroke="#F0F0F1" stroke-width="2"/>
<path d="M33.4359 32.469L32.0559 32.5731" stroke="#E8B382" stroke-width="2"/>
<path d="M32.056 32.5732L28.0288 32.2867" stroke="#929B9E" stroke-width="2"/>
<path d="M28.0287 32.2867C27.343 31.8354 26.6834 31.0629 26.0325 29.978" stroke="#E7D1BD" stroke-width="2"/>
<path d="M26.0325 29.9781C29.3132 26.8189 33.8178 20.5264 32.2902 15.7441" stroke="#E5D2C6" stroke-width="2"/>
<path d="M32.2903 15.7441C32.9933 15.1626 33.1322 14.5551 32.7069 13.9215" stroke="#7EBCD5" stroke-width="2"/>
<path d="M31.7167 13.4526L22.7336 13.444" stroke="#319DCE" stroke-width="2"/>
<path d="M33.2883 46C33.4359 45.783 33.8264 45.7136 34.46 45.7743" stroke="#F3BD8D" stroke-width="2"/>
<path d="M34.4602 45.7743L42.2281 45.7656C42.5232 45.7656 42.6621 45.6181 42.6534 45.323C42.4625 39.317 41.4036 34.283 34.5296 32.8683" stroke="#9DA6AA" stroke-width="2"/>
<path d="M34.5304 32.8681L33.4368 32.4689" stroke="#F3BD8D" stroke-width="2"/>
<path d="M12.7966 9.45166C10.8524 10.6841 8.98641 11.4218 7.19849 11.6649" stroke="#9DA6AA" stroke-width="2"/>
<path d="M7.19772 11.6647L4.97583 12.0813" stroke="#948776" stroke-width="2"/>
<path d="M4.97672 12.0815L0.802002 12.6804" stroke="#9DA6AA" stroke-width="2"/>
<path d="M12.9269 13.4441C12.4148 13.7305 12.1371 14.095 12.0763 14.5377C12.0416 14.8067 12.111 15.0498 12.2846 15.2667L12.9703 16.0739" stroke="#89C7E1" stroke-width="2"/>
<path d="M12.9709 16.0739C8.55314 17.4539 16.6769 27.9991 18.3607 29.6829" stroke="#F9E5D8" stroke-width="2"/>
<path d="M18.3608 29.6832C18.2566 30.5598 17.7185 31.4364 16.7551 32.3304" stroke="#F1DBC9" stroke-width="2"/>
<path d="M16.7552 32.3302L12.9797 32.4604" stroke="#9DA6AA" stroke-width="2"/>
<path d="M12.9784 32.4606L11.0168 32.5734" stroke="#F3BD8D" stroke-width="2"/>
<path d="M11.0174 32.5732C10.9392 32.5732 10.8611 32.5645 10.7917 32.5472C10.6789 32.5211 10.6181 32.4604 10.6008 32.3562L7.19849 11.6649" stroke="#F1DBC9" stroke-width="2"/>
<path d="M11.0168 32.5734L10.3918 33.0073" stroke="#EA9E5A" stroke-width="2"/>
<path d="M10.3921 33.0071L9.4895 32.903" stroke="#948776" stroke-width="2"/>
<path d="M9.48904 32.9032L8.543 32.1047C8.31734 31.9137 8.17847 31.6707 8.13507 31.3843L4.97583 12.0817" stroke="#F1DBC9" stroke-width="2"/>
<path d="M9.48918 32.903C3.17069 34.4652 2.1205 39.5165 1.94692 45.3403C1.93824 45.6267 2.0771 45.7656 2.36352 45.7656H10.1575" stroke="#9DA6AA" stroke-width="2"/>
<path d="M10.1575 45.7657C10.8431 45.7137 11.1816 45.7918 11.1729 46.0001" stroke="#F3BD8D" stroke-width="2"/>
<path d="M32.29 15.7443C32.099 15.8397 31.856 15.8831 31.5696 15.8571" stroke="#7EA9B6" stroke-width="2"/>
<path d="M31.5696 15.8571H30.3372" stroke="#2B728E" stroke-width="2"/>
<path d="M30.3366 15.8571L22.2649 15.8657" stroke="#7EA9B6" stroke-width="2"/>
<path d="M22.2659 15.8656L14.4719 15.935" stroke="#88B1BC" stroke-width="2"/>
<path d="M14.4715 15.9349C14.0809 15.77 13.5862 15.8134 12.97 16.0738" stroke="#2B728E" stroke-width="2"/>
<path d="M14.4715 15.9352L14.2371 17.7752C14.2024 18.0529 14.0722 18.105 13.8553 17.9314C13.2737 17.4714 12.9786 16.8552 12.97 16.074" stroke="#9C9085" stroke-width="2"/>
<path d="M22.2649 15.8658L22.4038 31.3149" stroke="#EEC7AD" stroke-width="2"/>
<path d="M22.4051 31.3149L18.3606 29.6832" stroke="#F0C6A4" stroke-width="2"/>
<path d="M30.3381 15.8571C30.2252 16.5861 30.2773 17.2284 30.503 17.7925C30.6505 18.1484 30.7807 18.1484 30.9109 17.7838L31.5705 15.8571" stroke="#92887F" stroke-width="2"/>
<path d="M26.0334 29.9781L22.4055 31.3148" stroke="#E6BE9E" stroke-width="2"/>
<path d="M28.0295 32.2867C24.1672 35.4547 20.4091 35.472 16.7551 32.3301" stroke="#948776" stroke-width="2"/>
<path d="M32.0567 32.5734L31.8571 39.2564C31.8484 39.5428 31.6922 39.6904 31.3971 39.6991L13.4224 39.7338C13.1533 39.7338 13.0231 39.5949 13.0145 39.3259L12.9797 32.4606" stroke="#95693B" stroke-width="2"/>
<path d="M34.5296 32.8683L34.4602 45.7743" stroke="#95693B" stroke-width="2"/>
<path d="M10.1575 45.7654L10.3918 33.007" stroke="#95693B" stroke-width="2"/>
<path d="M0.802002 0H44.1982V3.58453C43.4865 1.8834 42.4711 1.26717 41.1605 1.74453C40.8741 1.84868 40.5877 1.90943 40.2926 1.91811L38.1575 2.00491C37.8277 2.02226 37.5412 2.23057 37.4284 2.53434C36.0745 5.99736 34.8767 9.49509 33.8265 13.0275C33.7484 13.314 33.6095 13.5136 33.4273 13.6351C33.219 13.774 32.976 13.8694 32.7069 13.9215L31.7175 13.4528C32.5594 8.2366 30.4937 4.3917 25.5205 1.91811C24.7741 1.16302 23.5677 0.867925 21.8926 1.01547C18.0824 1.35396 14.5239 5.22491 13.005 8.42755C8.93445 7.70717 4.87257 8.0283 0.802002 9.37359V0Z" fill="white"/>
<path d="M25.5199 1.91796C22.786 5.60664 21.8573 8.6357 22.7339 13.444H12.9263L12.7961 9.45155C13.0478 9.13042 13.1173 8.78325 13.0044 8.4274C14.5233 5.22476 18.0818 1.35381 21.892 1.01532C23.5671 0.867775 24.7735 1.16287 25.5199 1.91796Z" fill="#4EB3E9"/>
<path d="M44.1981 3.5845V4.87771L33.4359 32.469L32.0559 32.5732L28.0287 32.2868C27.343 31.8354 26.6834 31.063 26.0325 29.9781C29.3132 26.8188 33.8178 20.5264 32.2902 15.7441C32.9932 15.1626 33.1321 14.5551 32.7068 13.9215C32.9759 13.8694 33.2189 13.7739 33.4272 13.6351C33.6095 13.5136 33.7483 13.3139 33.8264 13.0275C34.8766 9.49507 36.0744 5.99733 37.4283 2.53431C37.5412 2.23054 37.8276 2.02224 38.1574 2.00488L40.2925 1.91809C40.5876 1.90941 40.874 1.84865 41.1604 1.7445C42.471 1.26714 43.4864 1.88337 44.1981 3.5845Z" fill="#E5E5E5"/>
<path d="M25.5206 1.91809C30.4938 4.39168 32.5594 8.23658 31.7175 13.4528L22.7345 13.4441C21.8579 8.63583 22.7866 5.60677 25.5206 1.91809Z" fill="#4BA6D6"/>
<path d="M44.1981 4.87769V46H33.2883C33.4359 45.783 33.8264 45.7135 34.46 45.7743L42.228 45.7656C42.523 45.7656 42.6619 45.6181 42.6532 45.323C42.4623 39.3169 41.4034 34.283 34.5295 32.8683L33.4359 32.469L44.1981 4.87769Z" fill="white"/>
<path d="M13.005 8.42752C13.1179 8.78337 13.0484 9.13054 12.7967 9.45167C10.8526 10.6841 8.98653 11.4219 7.19861 11.6649L4.97672 12.0815L0.802002 12.6803V9.37356C4.87257 8.02827 8.93445 7.70714 13.005 8.42752Z" fill="#3F5157"/>
<path d="M12.7966 9.45166L12.9268 13.4441C12.4147 13.7305 12.137 14.0951 12.0762 14.5377C12.0415 14.8068 12.1109 15.0498 12.2845 15.2668L12.9702 16.0739C8.55245 17.4539 16.6762 27.9992 18.36 29.683C18.2558 30.5596 17.7177 31.4362 16.7543 32.3302L12.9789 32.4603L11.0174 32.5732C10.9392 32.5732 10.8611 32.5645 10.7917 32.5471C10.6789 32.5211 10.6181 32.4603 10.6008 32.3562L7.19849 11.6649C8.98641 11.4218 10.8524 10.6841 12.7966 9.45166Z" fill="white"/>
<path d="M7.19772 11.665L10.6 32.3564C10.6173 32.4605 10.6781 32.5213 10.7909 32.5473C10.8604 32.5647 10.9385 32.5733 11.0166 32.5733L10.3917 33.0073L9.48904 32.9032L8.543 32.1047C8.31734 31.9137 8.17847 31.6707 8.13507 31.3843L4.97583 12.0816L7.19772 11.665Z" fill="#E8BC95"/>
<path d="M4.97672 12.0815L8.13596 31.3842C8.17936 31.6706 8.31823 31.9136 8.54389 32.1046L9.48993 32.9031C3.17144 34.4653 2.12125 39.5166 1.94766 45.3404C1.93898 45.6268 2.07785 45.7657 2.36427 45.7657H10.1582C10.8439 45.7136 11.1824 45.7917 11.1737 46H0.802002V12.6804L4.97672 12.0815Z" fill="white"/>
<path d="M12.9269 13.4441H22.7344L31.7174 13.4528L32.7069 13.9215C33.1322 14.555 32.9933 15.1626 32.2903 15.7441C32.0993 15.8396 31.8563 15.883 31.5699 15.8569H30.3374L22.2657 15.8656L14.4718 15.935C14.0812 15.7701 13.5865 15.8135 12.9703 16.0739L12.2846 15.2667C12.111 15.0498 12.0416 14.8067 12.0763 14.5377C12.1371 14.095 12.4148 13.7305 12.9269 13.4441Z" fill="#1793C5"/>
<path d="M14.4715 15.9353L14.2371 17.7753C14.2024 18.053 14.0722 18.1051 13.8553 17.9315C13.2737 17.4715 12.9786 16.8553 12.97 16.0741C13.5862 15.8138 14.0809 15.7704 14.4715 15.9353Z" fill="#3F5157"/>
<path d="M22.2663 15.8657L22.4052 31.3148L18.3607 29.6831C16.6769 27.9993 8.55314 17.454 12.9709 16.074C12.9796 16.8552 13.2746 17.4714 13.8562 17.9314C14.0731 18.105 14.2033 18.0529 14.238 17.7752L14.4724 15.9352L22.2663 15.8657Z" fill="#F8CFB3"/>
<path d="M22.2649 15.8657L30.3366 15.857C30.2238 16.586 30.2758 17.2283 30.5015 17.7924C30.649 18.1483 30.7792 18.1483 30.9094 17.7838L31.569 15.857C31.8555 15.883 32.0985 15.8396 32.2894 15.7441C33.817 20.5264 29.3124 26.8189 26.0317 29.9781L22.4038 31.3147L22.2649 15.8657Z" fill="#E4BFA6"/>
<path d="M30.3381 15.8569H31.5705L30.9109 17.7837C30.7807 18.1483 30.6505 18.1483 30.503 17.7924C30.2773 17.2283 30.2252 16.586 30.3381 15.8569Z" fill="#3F5157"/>
<path d="M18.3608 29.6831L22.4053 31.3148L26.0332 29.9782C26.6842 31.0631 27.3438 31.8356 28.0295 32.2869C24.1672 35.4548 20.4091 35.4722 16.7551 32.3303C17.7185 31.4363 18.2566 30.5597 18.3608 29.6831Z" fill="#E8BC95"/>
<path d="M16.7552 32.33C20.4092 35.4719 24.1673 35.4545 28.0295 32.2866L32.0567 32.573L31.8571 39.2561C31.8484 39.5425 31.6922 39.69 31.3971 39.6987L13.4224 39.7334C13.1533 39.7334 13.0231 39.5945 13.0145 39.3255L12.9797 32.4602L16.7552 32.33Z" fill="#3F5157"/>
<path d="M11.0167 32.5733L12.9782 32.4604L13.0129 39.3257C13.0216 39.5948 13.1518 39.7337 13.4209 39.7337L31.3956 39.6989C31.6907 39.6903 31.8469 39.5427 31.8556 39.2563L32.0552 32.5733L33.4352 32.4691L34.5288 32.8684L34.4594 45.7744C33.8258 45.7137 33.4352 45.7831 33.2877 46.0001H11.1729C11.1816 45.7918 10.8431 45.7137 10.1575 45.7657L10.3918 33.0072L11.0167 32.5733Z" fill="#EB801E"/>
<path d="M9.48918 32.9028L10.3918 33.007L10.1575 45.7655H2.36352C2.0771 45.7655 1.93824 45.6266 1.94692 45.3402C2.1205 39.5164 3.17069 34.4651 9.48918 32.9028Z" fill="#3F5157"/>
<path d="M34.5296 32.8683C41.4036 34.283 42.4625 39.317 42.6534 45.323C42.6621 45.6181 42.5232 45.7656 42.2281 45.7656L34.4602 45.7743L34.5296 32.8683Z" fill="#3F5157"/>
</g>
<defs>
<clipPath id="clip0_3112_3396">
<rect width="43.3962" height="46" fill="white" transform="translate(0.802002)"/>
</clipPath>
</defs>
</svg>
