<svg width="199" height="124" viewBox="0 0 199 124" fill="none" xmlns="http://www.w3.org/2000/svg">
<g filter="url(#filter0_dd_5915_12879)">
<rect x="32" y="64" width="135" height="36" rx="18" fill="white" shape-rendering="crispEdges"/>
<path d="M62.642 88H60.392L64.4886 76.3636H67.0909L71.1932 88H68.9432L65.8352 78.75H65.7443L62.642 88ZM62.7159 83.4375H68.8523V85.1307H62.7159V83.4375ZM75.608 88.1534C74.9223 88.1534 74.3087 87.9773 73.767 87.625C73.2254 87.2727 72.7973 86.7614 72.483 86.0909C72.1686 85.4205 72.0114 84.6061 72.0114 83.6477C72.0114 82.678 72.1705 81.8598 72.4886 81.1932C72.8106 80.5227 73.2443 80.017 73.7898 79.6761C74.3352 79.3314 74.9432 79.1591 75.6136 79.1591C76.125 79.1591 76.5455 79.2462 76.875 79.4205C77.2045 79.5909 77.4659 79.7973 77.6591 80.0398C77.8523 80.2784 78.0019 80.5038 78.108 80.7159H78.1932V76.3636H80.2557V88H78.233V86.625H78.108C78.0019 86.8371 77.8485 87.0625 77.6477 87.3011C77.447 87.536 77.1818 87.7367 76.8523 87.9034C76.5227 88.0701 76.108 88.1534 75.608 88.1534ZM76.1818 86.4659C76.6174 86.4659 76.9886 86.3485 77.2955 86.1136C77.6023 85.875 77.8352 85.5436 77.9943 85.1193C78.1534 84.6951 78.233 84.2008 78.233 83.6364C78.233 83.072 78.1534 82.5814 77.9943 82.1648C77.839 81.7481 77.608 81.4242 77.3011 81.1932C76.9981 80.9621 76.625 80.8466 76.1818 80.8466C75.7235 80.8466 75.3409 80.9659 75.0341 81.2045C74.7273 81.4432 74.4962 81.7727 74.3409 82.1932C74.1856 82.6136 74.108 83.0947 74.108 83.6364C74.108 84.1818 74.1856 84.6686 74.3409 85.0966C74.5 85.5208 74.733 85.8561 75.0398 86.1023C75.3504 86.3447 75.7311 86.4659 76.1818 86.4659ZM82.4474 79.2727H84.5043V88.5C84.5043 89.1288 84.3849 89.6477 84.1463 90.0568C83.9077 90.4659 83.563 90.7708 83.1122 90.9716C82.6615 91.1723 82.1141 91.2727 81.4702 91.2727C81.3944 91.2727 81.3243 91.2708 81.2599 91.267C81.1955 91.267 81.1255 91.2652 81.0497 91.2614V89.5852C81.1065 89.589 81.1577 89.5909 81.2031 89.5909C81.2486 89.5947 81.2959 89.5966 81.3452 89.5966C81.7391 89.5966 82.0213 89.5 82.1918 89.3068C82.3622 89.1174 82.4474 88.839 82.4474 88.4716V79.2727ZM83.4702 78.0341C83.1406 78.0341 82.8584 77.9261 82.6236 77.7102C82.3925 77.4905 82.277 77.2273 82.277 76.9205C82.277 76.6098 82.3925 76.3466 82.6236 76.1307C82.8584 75.911 83.1406 75.8011 83.4702 75.8011C83.7959 75.8011 84.0743 75.911 84.3054 76.1307C84.5402 76.3466 84.6577 76.6098 84.6577 76.9205C84.6577 77.2273 84.5402 77.4905 84.3054 77.7102C84.0743 77.9261 83.7959 78.0341 83.4702 78.0341ZM92.1818 84.3295V79.2727H94.2386V88H92.2443V86.4489H92.1534C91.9564 86.9375 91.6326 87.3371 91.1818 87.6477C90.7348 87.9583 90.1837 88.1136 89.5284 88.1136C88.9564 88.1136 88.4508 87.9867 88.0114 87.733C87.5758 87.4754 87.2348 87.1023 86.9886 86.6136C86.7424 86.1212 86.6193 85.5265 86.6193 84.8295V79.2727H88.6761V84.5114C88.6761 85.0644 88.8277 85.5038 89.1307 85.8295C89.4337 86.1553 89.8314 86.3182 90.3239 86.3182C90.6269 86.3182 90.9205 86.2443 91.2045 86.0966C91.4886 85.9489 91.7216 85.7292 91.9034 85.4375C92.089 85.142 92.1818 84.7727 92.1818 84.3295ZM103.251 81.5795L101.376 81.7841C101.323 81.5947 101.231 81.4167 101.098 81.25C100.969 81.0833 100.795 80.9489 100.575 80.8466C100.356 80.7443 100.087 80.6932 99.7685 80.6932C99.3404 80.6932 98.9806 80.786 98.6889 80.9716C98.401 81.1572 98.259 81.3977 98.2628 81.6932C98.259 81.947 98.3518 82.1534 98.5412 82.3125C98.7344 82.4716 99.0526 82.6023 99.4957 82.7045L100.984 83.0227C101.81 83.2008 102.424 83.483 102.825 83.8693C103.231 84.2557 103.435 84.7614 103.439 85.3864C103.435 85.9356 103.274 86.4205 102.956 86.8409C102.642 87.2576 102.204 87.5833 101.643 87.8182C101.083 88.053 100.439 88.1705 99.7116 88.1705C98.6435 88.1705 97.7836 87.947 97.1321 87.5C96.4806 87.0492 96.0923 86.4223 95.9673 85.6193L97.973 85.4261C98.0639 85.8201 98.2571 86.1174 98.5526 86.3182C98.848 86.5189 99.2325 86.6193 99.706 86.6193C100.195 86.6193 100.587 86.5189 100.882 86.3182C101.181 86.1174 101.331 85.8693 101.331 85.5739C101.331 85.3239 101.234 85.1174 101.041 84.9545C100.852 84.7917 100.556 84.6667 100.155 84.5795L98.6662 84.267C97.8291 84.0928 97.2098 83.7992 96.8082 83.3864C96.4067 82.9697 96.2079 82.4432 96.2116 81.8068C96.2079 81.2689 96.3537 80.803 96.6491 80.4091C96.9484 80.0114 97.3632 79.7045 97.8935 79.4886C98.4276 79.2689 99.0431 79.1591 99.7401 79.1591C100.763 79.1591 101.568 79.3769 102.155 79.8125C102.746 80.2481 103.111 80.8371 103.251 81.5795ZM109.493 79.2727V80.8636H104.476V79.2727H109.493ZM105.714 77.1818H107.771V85.375C107.771 85.6515 107.813 85.8636 107.896 86.0114C107.983 86.1553 108.097 86.2538 108.237 86.3068C108.377 86.3598 108.533 86.3864 108.703 86.3864C108.832 86.3864 108.949 86.3769 109.055 86.358C109.165 86.339 109.249 86.322 109.305 86.3068L109.652 87.9148C109.542 87.9527 109.385 87.9943 109.18 88.0398C108.98 88.0852 108.733 88.1117 108.442 88.1193C107.927 88.1345 107.463 88.0568 107.05 87.8864C106.637 87.7121 106.309 87.4432 106.067 87.0795C105.828 86.7159 105.711 86.2614 105.714 85.7159V77.1818ZM115.273 88V76.3636H119.636C120.53 76.3636 121.28 76.5303 121.886 76.8636C122.496 77.197 122.956 77.6553 123.267 78.2386C123.581 78.8182 123.739 79.4773 123.739 80.2159C123.739 80.9621 123.581 81.625 123.267 82.2045C122.953 82.7841 122.489 83.2405 121.875 83.5739C121.261 83.9034 120.506 84.0682 119.608 84.0682H116.716V82.3352H119.324C119.847 82.3352 120.275 82.2443 120.608 82.0625C120.941 81.8807 121.188 81.6307 121.347 81.3125C121.509 80.9943 121.591 80.6288 121.591 80.2159C121.591 79.803 121.509 79.4394 121.347 79.125C121.188 78.8106 120.939 78.5663 120.602 78.392C120.269 78.214 119.839 78.125 119.312 78.125H117.381V88H115.273ZM125.479 88V79.2727H127.536V88H125.479ZM126.513 78.0341C126.187 78.0341 125.907 77.9261 125.672 77.7102C125.437 77.4905 125.32 77.2273 125.32 76.9205C125.32 76.6098 125.437 76.3466 125.672 76.1307C125.907 75.911 126.187 75.8011 126.513 75.8011C126.842 75.8011 127.123 75.911 127.354 76.1307C127.589 76.3466 127.706 76.6098 127.706 76.9205C127.706 77.2273 127.589 77.4905 127.354 77.7102C127.123 77.9261 126.842 78.0341 126.513 78.0341ZM131.707 82.8864V88H129.651V79.2727H131.616V80.7557H131.719C131.92 80.267 132.24 79.8788 132.679 79.5909C133.122 79.303 133.67 79.1591 134.321 79.1591C134.923 79.1591 135.448 79.2879 135.895 79.5455C136.346 79.803 136.694 80.1761 136.94 80.6648C137.19 81.1534 137.313 81.7462 137.31 82.4432V88H135.253V82.7614C135.253 82.178 135.101 81.7216 134.798 81.392C134.499 81.0625 134.084 80.8977 133.554 80.8977C133.194 80.8977 132.874 80.9773 132.594 81.1364C132.317 81.2917 132.099 81.517 131.94 81.8125C131.785 82.108 131.707 82.4659 131.707 82.8864Z" fill="black"/>
</g>
<rect x="77" width="44" height="44" rx="22" fill="black"/>
<path d="M93.6 32.4C95.2569 32.4 96.6 31.0569 96.6 29.4V27.6C96.6 26.2745 97.6745 25.2 99 25.2C100.325 25.2 101.4 26.2745 101.4 27.6V29.4C101.4 31.0569 102.743 32.4 104.4 32.4C106.057 32.4 107.4 31.0569 107.4 29.4V23.7983C107.4 23.247 107.847 22.8 108.398 22.8C109.313 22.8 109.746 21.6717 109.066 21.0596L101.676 14.4083C100.155 13.0392 97.8454 13.0392 96.3241 14.4083L88.9338 21.0596C88.2537 21.6717 88.6867 22.8 89.6017 22.8C90.153 22.8 90.6 23.247 90.6 23.7983V29.4C90.6 31.0569 91.9431 32.4 93.6 32.4Z" fill="white"/>
<path d="M100.145 52.0485L92.2494 41.5651L92.3672 39.5686L107.341 40.4523L100.145 52.0485Z" fill="black" stroke="black"/>
<g filter="url(#filter1_dd_5915_12879)">
<circle cx="100" cy="56" r="2" fill="black"/>
</g>
<defs>
<filter id="filter0_dd_5915_12879" x="0" y="40" width="199" height="100" filterUnits="userSpaceOnUse" color-interpolation-filters="sRGB">
<feFlood flood-opacity="0" result="BackgroundImageFix"/>
<feColorMatrix in="SourceAlpha" type="matrix" values="0 0 0 0 0 0 0 0 0 0 0 0 0 0 0 0 0 0 127 0" result="hardAlpha"/>
<feOffset dy="8"/>
<feGaussianBlur stdDeviation="16"/>
<feComposite in2="hardAlpha" operator="out"/>
<feColorMatrix type="matrix" values="0 0 0 0 0.0666667 0 0 0 0 0.0666667 0 0 0 0 0.101961 0 0 0 0.05 0"/>
<feBlend mode="normal" in2="BackgroundImageFix" result="effect1_dropShadow_5915_12879"/>
<feColorMatrix in="SourceAlpha" type="matrix" values="0 0 0 0 0 0 0 0 0 0 0 0 0 0 0 0 0 0 127 0" result="hardAlpha"/>
<feOffset dy="4"/>
<feGaussianBlur stdDeviation="8"/>
<feComposite in2="hardAlpha" operator="out"/>
<feColorMatrix type="matrix" values="0 0 0 0 0.0666667 0 0 0 0 0.0666667 0 0 0 0 0.101961 0 0 0 0.05 0"/>
<feBlend mode="normal" in2="effect1_dropShadow_5915_12879" result="effect2_dropShadow_5915_12879"/>
<feBlend mode="normal" in="SourceGraphic" in2="effect2_dropShadow_5915_12879" result="shape"/>
</filter>
<filter id="filter1_dd_5915_12879" x="66" y="30" width="68" height="68" filterUnits="userSpaceOnUse" color-interpolation-filters="sRGB">
<feFlood flood-opacity="0" result="BackgroundImageFix"/>
<feColorMatrix in="SourceAlpha" type="matrix" values="0 0 0 0 0 0 0 0 0 0 0 0 0 0 0 0 0 0 127 0" result="hardAlpha"/>
<feOffset dy="8"/>
<feGaussianBlur stdDeviation="16"/>
<feComposite in2="hardAlpha" operator="out"/>
<feColorMatrix type="matrix" values="0 0 0 0 0.0666667 0 0 0 0 0.0666667 0 0 0 0 0.101961 0 0 0 0.05 0"/>
<feBlend mode="normal" in2="BackgroundImageFix" result="effect1_dropShadow_5915_12879"/>
<feColorMatrix in="SourceAlpha" type="matrix" values="0 0 0 0 0 0 0 0 0 0 0 0 0 0 0 0 0 0 127 0" result="hardAlpha"/>
<feOffset dy="4"/>
<feGaussianBlur stdDeviation="8"/>
<feComposite in2="hardAlpha" operator="out"/>
<feColorMatrix type="matrix" values="0 0 0 0 0.0666667 0 0 0 0 0.0666667 0 0 0 0 0.101961 0 0 0 0.05 0"/>
<feBlend mode="normal" in2="effect1_dropShadow_5915_12879" result="effect2_dropShadow_5915_12879"/>
<feBlend mode="normal" in="SourceGraphic" in2="effect2_dropShadow_5915_12879" result="shape"/>
</filter>
</defs>
</svg>
