<svg width="24" height="24" viewBox="0 0 24 24" fill="none" xmlns="http://www.w3.org/2000/svg">
<g clip-path="url(#clip0_5896_12022)">
<mask id="path-1-inside-1_5896_12022" fill="white">
<path d="M20.01 3.5H4.01C2.9 3.5 2.02 4.39 2.02 5.5L2.01 17.5C2.01 18.61 2.9 19.5 4.01 19.5H20.01C21.12 19.5 22.01 18.61 22.01 17.5V5.5C22.01 4.39 21.12 3.5 20.01 3.5ZM20.01 17.5H4.01V9.5H20.01V17.5ZM20.01 7.5H4.01V5.5H20.01V7.5Z"/>
</mask>
<path d="M20.01 3.5H4.01C2.9 3.5 2.02 4.39 2.02 5.5L2.01 17.5C2.01 18.61 2.9 19.5 4.01 19.5H20.01C21.12 19.5 22.01 18.61 22.01 17.5V5.5C22.01 4.39 21.12 3.5 20.01 3.5ZM20.01 17.5H4.01V9.5H20.01V17.5ZM20.01 7.5H4.01V5.5H20.01V7.5Z" fill="black"/>
<path d="M2.02 5.5L4.02 5.50167V5.5H2.02ZM2.01 17.5L0.00999999 17.4983V17.5H2.01ZM20.01 17.5V19.5H22.01V17.5H20.01ZM4.01 17.5H2.01V19.5H4.01V17.5ZM4.01 9.5V7.5H2.01V9.5H4.01ZM20.01 9.5H22.01V7.5H20.01V9.5ZM20.01 7.5V9.5H22.01V7.5H20.01ZM4.01 7.5H2.01V9.5H4.01V7.5ZM4.01 5.5V3.5H2.01V5.5H4.01ZM20.01 5.5H22.01V3.5H20.01V5.5ZM20.01 1.5H4.01V5.5H20.01V1.5ZM4.01 1.5C1.78236 1.5 0.02 3.29855 0.02 5.5H4.02C4.02 5.49368 4.0206 5.49032 4.0208 5.4893C4.02103 5.48818 4.02114 5.48811 4.02089 5.48871C4.02041 5.48986 4.01948 5.49142 4.01787 5.49304C4.01621 5.49471 4.01328 5.49698 4.009 5.49879C4.00688 5.49969 4.00522 5.50012 4.00447 5.50027C4.00363 5.50044 4.00522 5.5 4.01 5.5V1.5ZM0.0200007 5.49833L0.0100007 17.4983L4.01 17.5017L4.02 5.50167L0.0200007 5.49833ZM0.00999999 17.5C0.00999999 19.7146 1.79543 21.5 4.01 21.5V17.5H0.00999999ZM4.01 21.5H20.01V17.5H4.01V21.5ZM20.01 21.5C22.2246 21.5 24.01 19.7146 24.01 17.5H20.01V21.5ZM24.01 17.5V5.5H20.01V17.5H24.01ZM24.01 5.5C24.01 3.28543 22.2246 1.5 20.01 1.5V5.5H24.01ZM20.01 15.5H4.01V19.5H20.01V15.5ZM6.01 17.5V9.5H2.01V17.5H6.01ZM4.01 11.5H20.01V7.5H4.01V11.5ZM18.01 9.5V17.5H22.01V9.5H18.01ZM20.01 5.5H4.01V9.5H20.01V5.5ZM6.01 7.5V5.5H2.01V7.5H6.01ZM4.01 7.5H20.01V3.5H4.01V7.5ZM18.01 5.5V7.5H22.01V5.5H18.01Z" fill="black" mask="url(#path-1-inside-1_5896_12022)"/>
<path d="M15 13.5L4 10.5H3.5V18.5H20.5V10L15 13.5Z" fill="black"/>
</g>
<defs>
<clipPath id="clip0_5896_12022">
<rect width="24" height="24" fill="white"/>
</clipPath>
</defs>
</svg>
