<svg width="24" height="24" viewBox="0 0 24 24" fill="none" xmlns="http://www.w3.org/2000/svg">
<path d="M19 9.5C19 15.3333 11.5 22 11.5 22C11.5 22 4 15.3333 4 9.5C4 7.51088 4.79018 5.60322 6.1967 4.1967C7.60322 2.79018 9.51088 2 11.5 2C13.4891 2 15.3968 2.79018 16.8033 4.1967C18.2098 5.60322 19 7.51088 19 9.5Z" stroke="black" stroke-width="2" stroke-linecap="round" stroke-linejoin="round"/>
<path d="M11.5 12C12.8807 12 14 10.8807 14 9.5C14 8.11929 12.8807 7 11.5 7C10.1193 7 9 8.11929 9 9.5C9 10.8807 10.1193 12 11.5 12Z" stroke="black" stroke-width="2" stroke-linecap="round" stroke-linejoin="round"/>
</svg>
