<svg width="25" height="28" viewBox="0 0 25 28" fill="none" xmlns="http://www.w3.org/2000/svg">
<path d="M1 10.0909V26.4545L8.15909 22.3636L16.3409 26.4545L23.5 22.3636V6L16.3409 10.0909L8.15909 6L1 10.0909Z" stroke="#181818" stroke-width="2" stroke-linecap="round" stroke-linejoin="round"/>
<path d="M8.15845 6V22.3636" stroke="#181818" stroke-width="2" stroke-linecap="round" stroke-linejoin="round"/>
<path d="M16.3416 10.0916V26.4552" stroke="#181818" stroke-width="2" stroke-linecap="round" stroke-linejoin="round"/>
<path d="M18 6.39819C18 10.5968 13 18 13 18C13 18 8 10.5968 8 6.39819C8 4.9665 8.52678 3.59345 9.46447 2.58109C10.4021 1.56874 11.6739 1 13 1C14.3261 1 15.5979 1.56874 16.5355 2.58109C17.4732 3.59345 18 4.9665 18 6.39819Z" fill="black" stroke="white" stroke-linecap="round" stroke-linejoin="round"/>
<path d="M13 9.85116C13.789 9.85116 14.4286 8.92805 14.4286 7.78935C14.4286 6.65064 13.789 5.72754 13 5.72754C12.211 5.72754 11.5714 6.65064 11.5714 7.78935C11.5714 8.92805 12.211 9.85116 13 9.85116Z" fill="white" stroke="white" stroke-linecap="round" stroke-linejoin="round"/>
</svg>
